<svg width="37" height="28" viewBox="0 0 37 28" fill="none" xmlns="http://www.w3.org/2000/svg">
<path d="M3.34683 0.250882C3.69665 0.881135 4.06051 1.42373 4.44008 1.89075L4.44467 1.89534C4.44596 1.897 4.44794 1.89831 4.44926 1.89993C4.27442 1.87442 4.09432 1.85661 3.90724 1.85858C3.53771 1.86247 3.14088 1.92597 2.71294 2.0607C3.44789 2.67614 4.07368 3.12608 4.62377 3.47549C4.61032 3.47106 4.59584 3.46606 4.58242 3.46171L4.62377 3.48469C3.77154 3.21795 2.85216 3.18533 1.77588 3.69599C2.54871 4.1796 3.19726 4.53246 3.76951 4.79842C3.75277 4.79593 3.7357 4.79158 3.71898 4.78924L3.76033 4.8122C2.86852 4.65862 1.943 4.74495 0.935306 5.40935C1.59232 5.70212 2.16312 5.92312 2.67163 6.09378H2.67622L2.70839 6.11215C1.85799 6.14522 1.0152 6.41 0.191174 7.19161C0.911021 7.37017 1.52733 7.48942 2.06991 7.56828C2.05468 7.57136 2.0392 7.5742 2.02398 7.57746C2.0028 7.57709 1.98076 7.57783 1.95967 7.57746L1.98264 7.58665C1.34871 7.7306 0.730579 8.04843 0.126957 8.65694C0.616051 8.76261 1.05615 8.8447 1.45906 8.90499C0.963029 9.14476 0.491879 9.51632 0.0626488 10.0855C0.626251 10.1293 1.12556 10.148 1.5739 10.1498C1.03147 10.4008 0.520336 10.7949 0.0672414 11.4314C0.872237 11.4716 1.54511 11.4699 2.12505 11.436C2.11421 11.4404 2.10372 11.4452 2.0929 11.4498C2.05766 11.4529 2.02227 11.4552 1.98724 11.459L2.03778 11.4773C1.43482 11.7421 0.876753 12.171 0.397912 12.8967C1.39834 12.9113 2.1908 12.8641 2.85537 12.7819C2.83513 12.7874 2.81583 12.7945 2.79565 12.8002C2.77 12.8017 2.7429 12.8029 2.71757 12.8048L2.74972 12.814C1.96595 13.0475 1.24223 13.4973 0.641371 14.4079C1.44952 14.4197 2.12429 14.3891 2.70379 14.3344C2.69122 14.3413 2.67957 14.3504 2.66704 14.3574C1.97466 14.7437 1.37945 15.3238 0.985828 16.3051C1.69656 16.1705 2.29231 16.0285 2.80944 15.8779C2.80086 15.8847 2.79039 15.8894 2.78188 15.8963L2.81403 15.8917C2.28172 16.2889 1.83421 16.8455 1.53246 17.6694C2.02179 17.5612 2.45899 17.4475 2.85078 17.3341C2.49908 17.7593 2.22743 18.2901 2.0745 18.9877C2.60587 18.792 3.06676 18.6037 3.4755 18.4181C3.47056 18.4239 3.46663 18.4306 3.46173 18.4365C3.45337 18.4431 3.44228 18.4483 3.43417 18.4548L3.44794 18.4502C3.07299 18.8996 2.78689 19.4646 2.64409 20.2141C3.39221 19.915 4.00074 19.6279 4.51361 19.3552C4.49911 19.3692 4.48131 19.3823 4.46767 19.3965L4.48145 19.3919C4.02786 19.8894 3.6892 20.5285 3.55357 21.4084C4.43663 21.0186 5.11705 20.6562 5.67575 20.3152C5.66984 20.3212 5.66321 20.3275 5.65738 20.3335L5.69413 20.3152C5.05978 20.8584 4.57314 21.5793 4.40337 22.6808C5.59352 22.1554 6.42596 21.6795 7.07219 21.2384C6.79466 21.7997 6.64803 22.4537 6.7185 23.2734C7.86875 22.3909 8.59705 21.6794 9.13925 21.0501C9.13833 21.0592 9.13999 21.0686 9.13925 21.0777C9.10637 21.4765 9.13123 21.9089 9.2495 22.3868C9.93144 21.2152 10.6135 20.7295 11.3073 20.329C10.4395 20.8915 10.5953 21.3473 10.5953 21.8678C11.6272 20.7811 13.0628 19.6269 13.503 18.905C12.9145 19.7889 12.6795 20.6282 12.5246 21.3671C9.51346 22.9596 7.67586 23.3764 5.62063 24.0129C6.41791 24.3053 7.27368 24.5893 6.92058 24.9959L5.97891 25.9375C6.581 25.7504 7.19598 25.4805 7.72902 25.8457C7.67671 26.3395 7.05381 26.5913 6.52093 26.8792C7.45908 26.5412 7.66149 26.6208 7.90816 26.7C8.0314 27.2918 7.60341 27.6091 7.3248 28C9.68784 26.2033 12.7694 24.7847 14.9408 24.192C17.9951 23.1634 21.9359 22.0912 23.007 19.4836L24.0773 15.1841C25.3329 13.8252 26.4877 12.4183 27.0354 10.7056C30.5318 10.0291 33.3603 10.2716 36.3096 10.3473C36.0408 10.3025 27.3064 8.82226 27.3064 8.82226C24.7532 5.32889 20.9443 7.70479 19.6904 11.1558C19.3739 12.0268 17.5678 12.0249 17.0446 11.1512C14.9757 6.69696 8.69349 1.9865 3.34683 0.250882Z" fill="black"/>
<path d="M3.28597 7.70685e-05C3.63826 0.634738 4.00452 1.17624 4.38695 1.64553C4.2121 1.62003 4.03197 1.60502 3.84489 1.60699C3.47535 1.61088 3.08032 1.67223 2.65236 1.80696C3.39915 2.43233 4.03027 2.88871 4.58698 3.24042C3.72695 2.96572 2.80082 2.9266 1.7129 3.44279C2.50755 3.94005 3.17456 4.29943 3.75836 4.56788C2.84824 4.40013 1.90452 4.47656 0.874504 5.15571C1.55455 5.45876 2.14265 5.68626 2.66451 5.8592C1.8079 5.88914 0.960003 6.15371 0.130146 6.94091C0.849993 7.11949 1.46673 7.23788 2.00925 7.31674C1.34525 7.4509 0.693915 7.7694 0.0626475 8.40568C0.551742 8.51136 0.992002 8.5911 1.39492 8.65143C0.898886 8.89118 0.42923 9.26274 0 9.83191C0.563602 9.87567 1.06223 9.89511 1.51055 9.89696C0.968101 10.1479 0.460324 10.5445 0.00722942 11.181C0.812207 11.2213 1.48464 11.2174 2.06467 11.1834C1.42722 11.444 0.839721 11.8844 0.337292 12.6458C1.33772 12.6604 2.13005 12.6124 2.79457 12.5302C1.96978 12.7541 1.2063 13.2044 0.578151 14.1564C1.3863 14.1682 2.06085 14.1388 2.64039 14.0841C1.93189 14.4702 1.32338 15.0558 0.922676 16.0549C1.65209 15.9167 2.26341 15.7688 2.78979 15.614C2.24148 16.013 1.7806 16.5735 1.47197 17.416C1.9613 17.3079 2.39558 17.1946 2.78738 17.0812C2.43566 17.5064 2.16456 18.0386 2.01163 18.7363C2.543 18.5406 3.00262 18.3509 3.41136 18.1653C3.02304 18.6197 2.72644 19.1949 2.58019 19.9625C3.32831 19.6634 3.93682 19.3776 4.44971 19.1049C3.97953 19.6075 3.62974 20.254 3.49086 21.1551C4.4017 20.753 5.10052 20.3805 5.66874 20.03C5.01617 20.5769 4.51439 21.3041 4.34129 22.4272C5.53145 21.9017 6.36203 21.4252 7.00825 20.9841C6.73073 21.5454 6.58363 22.2026 6.6541 23.0221C7.80436 22.1397 8.53302 21.4253 9.07523 20.7961C9.03866 21.2025 9.0675 21.6444 9.18847 22.1332C10.0142 20.7145 10.8349 20.3003 11.6841 19.8268C10.3314 20.5078 10.532 21.0205 10.532 21.6154C11.5639 20.5287 13.0029 19.3763 13.4431 18.6544C12.8546 19.5382 12.6151 20.3752 12.4602 21.1141C9.44908 22.7065 7.61571 23.1227 5.5603 23.7593C6.35757 24.0517 7.21195 24.3381 6.85885 24.7446L5.91687 25.6842C6.51896 25.4971 7.13287 25.2299 7.66592 25.5951C7.6136 26.0889 6.98937 26.3383 6.45649 26.6262C7.39463 26.2882 7.59751 26.3662 7.84418 26.4455C7.96742 27.0373 7.53977 27.3556 7.26117 27.7465C9.62421 25.9497 12.7076 24.5303 14.879 23.9375C17.9333 22.909 21.8715 21.8399 22.9424 19.2325L24.0169 14.9321C25.2726 13.5731 26.4276 12.1639 26.9755 10.4511C30.4718 9.77467 33.299 10.0189 36.2484 10.0945C35.9795 10.0498 27.2429 8.56953 27.2429 8.56953C24.6897 5.07616 20.8837 7.45066 19.6298 10.9016C19.3134 11.7726 17.5079 11.7729 16.9846 10.8992C14.9158 6.44496 8.63263 1.7357 3.28597 7.70685e-05Z" fill="#9A1108"/>
<path d="M23.9139 9.1161L23.8909 9.15285C23.8003 9.32165 23.647 9.43688 23.4316 9.50656C23.2161 9.57623 22.94 9.59856 22.6185 9.58464L22.4164 9.57546L22.5634 9.71786C22.638 9.78964 22.6589 9.84694 22.6599 9.897C22.661 9.94708 22.6394 10.0012 22.591 10.0624C22.4941 10.1848 22.3018 10.3178 22.1224 10.4528L22.0627 10.4942L22.1041 10.5539C22.2537 10.7835 22.3222 10.9602 22.3383 11.0959C22.3544 11.2316 22.3228 11.3289 22.2602 11.4128C22.135 11.5808 21.86 11.6946 21.6125 11.8354L21.5666 11.8584L21.5758 11.9135C21.5971 12.0427 21.5623 12.1482 21.4702 12.2534C21.378 12.3587 21.2229 12.459 21.0154 12.5474L20.9603 12.5704L20.9695 12.6301C21.0109 12.9066 21.094 13.1473 21.2681 13.3008C21.4273 13.4412 21.6682 13.4782 21.9754 13.4156C22.029 13.7104 22.1058 13.9784 22.2832 14.1551C22.463 14.3342 22.7477 14.3872 23.1284 14.2883C23.2141 14.4948 23.3392 14.6419 23.4821 14.7385C23.639 14.8445 23.8439 14.8873 24.0125 14.9397L24.1124 14.8323C23.9451 14.7803 23.698 14.7 23.5648 14.6099C23.4315 14.5198 23.3233 14.3963 23.2478 14.1827L23.2249 14.1092L23.1514 14.1322C22.7599 14.2525 22.5429 14.1983 22.3934 14.0495C22.244 13.9007 22.16 13.6317 22.1087 13.3191L22.0949 13.2365L22.0122 13.2594C21.6896 13.3436 21.4991 13.3005 21.3691 13.1859C21.2477 13.0788 21.1758 12.889 21.1348 12.6531C21.3218 12.5667 21.482 12.4721 21.585 12.3545C21.6856 12.2396 21.7292 12.0977 21.7228 11.9503C21.9509 11.8249 22.2259 11.7171 22.3843 11.5047C22.4671 11.3937 22.5101 11.2478 22.4899 11.0775C22.4716 10.9226 22.3957 10.7437 22.2648 10.5309C22.4255 10.4125 22.5999 10.2939 22.7104 10.1542C22.7718 10.0766 22.818 9.99061 22.8161 9.89242C22.8149 9.83826 22.7629 9.78893 22.7334 9.73624C23.0128 9.73989 23.2674 9.72148 23.4775 9.65355C23.6989 9.58198 23.8728 9.45154 23.9874 9.27229C24.3181 9.27395 24.6606 9.34671 25.0071 9.39173C25.3631 9.43799 25.7253 9.4504 26.0682 9.29986L26.0039 9.15747C25.7005 9.29066 25.3763 9.28513 25.0301 9.24015C24.6839 9.19516 24.323 9.11349 23.9598 9.11612L23.9139 9.1161Z" fill="white"/>
<path d="M25.1993 9.05897C25.1993 9.41945 24.9071 9.71167 24.5466 9.71167C24.1862 9.71167 23.894 9.41945 23.894 9.05897C23.894 8.69852 24.1862 8.40628 24.5466 8.40628C24.9071 8.40628 25.1993 8.6985 25.1993 9.05897Z" fill="white" stroke="white" stroke-width="0.660673"/>
<path d="M27.1487 8.44669C26.5627 9.20898 26.4154 9.01211 26.0587 9.1399L25.9989 9.16285L26.0081 9.22716C26.1455 9.99281 26.5993 10.2361 26.9534 10.5144L26.9732 10.4525L27.0674 10.4345C26.7124 10.1555 26.3239 9.91923 26.1827 9.26851C26.4425 9.20705 26.6904 9.28564 27.2438 8.5657L27.1487 8.44669Z" fill="white"/>
<path d="M4.58617 3.23848C5.69342 3.92504 7.51575 4.63303 8.68611 5.37264C9.32996 5.7826 9.90826 6.19109 10.3581 6.54397C10.808 6.89686 11.1407 7.26145 11.2631 7.37998C11.3854 7.49851 11.4685 7.44251 11.3871 7.28811C11.3057 7.13372 10.9049 6.77679 10.45 6.41995C9.99512 6.06311 9.41647 5.65641 8.7688 5.24402C7.47348 4.41926 5.95312 3.68188 4.58617 3.23848Z" fill="white"/>
<path d="M4.38699 1.64516C4.85115 1.75235 5.53621 2.14823 6.29799 2.57178C7.0598 2.99533 7.89008 3.51653 8.64978 4.02331C9.40954 4.5301 9.99532 4.97364 10.4636 5.33094C10.9083 5.71148 11.1278 5.9579 11.2129 5.95716C11.2246 5.9595 11.2361 5.95968 11.2543 5.95716C11.2725 5.95463 11.3031 5.94061 11.3186 5.91122C11.334 5.88185 11.3281 5.85717 11.3232 5.84233C11.3183 5.82748 11.3157 5.81961 11.3094 5.81017C11.2843 5.77243 11.2459 5.7371 11.19 5.68615C11.078 5.58425 10.8931 5.43441 10.6571 5.25435C10.1852 4.89425 9.49935 4.40316 8.73708 3.89468C7.97478 3.3862 7.13864 2.86051 6.37147 2.43397C6.09876 2.33291 4.76146 1.62565 4.38699 1.64516Z" fill="white"/>
<path d="M3.75256 4.56816C5.1737 5.14823 7.19541 5.82959 8.54484 6.6778C9.26991 7.13822 9.90143 7.59688 10.373 7.97316C10.6088 8.16129 10.8058 8.33041 10.9518 8.46465C11.0978 8.59892 11.1802 8.72078 11.2274 8.75405C11.3263 8.82368 11.4019 8.77742 11.356 8.66677C11.3214 8.58322 11.2071 8.48738 11.0575 8.34981C10.9078 8.21226 10.7076 8.04367 10.4695 7.85371C9.99337 7.47383 9.35768 7.00822 8.62752 6.54455C7.16723 5.61727 5.42142 4.80209 3.75256 4.56816Z" fill="white"/>
<path d="M2.65892 5.85736C3.76648 5.85809 6.05436 6.87188 7.01872 7.37995C8.58233 8.21384 10.0042 9.28579 10.79 10.0349C10.8772 10.118 11.0045 10.0447 10.9049 9.92928C10.175 9.08349 8.66743 8.08675 7.09225 7.24664C5.51706 6.40657 3.88608 5.85612 2.65892 5.85736Z" fill="white"/>
<path d="M2.01897 7.31622C3.68405 7.55986 5.67999 8.23196 7.13418 8.96021C7.94571 9.37225 8.66933 9.81359 9.22427 10.205C9.77915 10.5965 10.1888 11.0372 10.2899 11.1513C10.3911 11.2653 10.5115 11.2701 10.4186 11.0686C10.3257 10.8671 9.87372 10.473 9.31154 10.0764C8.74936 9.6798 8.02101 9.23766 7.20319 8.82239C5.56746 7.99187 3.70462 7.33851 2.01897 7.31622Z" fill="white"/>
<path d="M2.56856 8.55551C2.15493 8.51942 1.78259 8.60424 1.40325 8.65165C2.88274 8.51301 4.95158 9.19242 6.33071 9.82791C7.95526 10.5895 9.30419 11.6351 9.95042 12.2992C10.0516 12.4032 10.1231 12.2707 10.0699 12.2027C9.46815 11.4346 8.03528 10.4544 6.395 9.68553C5.16487 9.10883 3.80955 8.6638 2.56856 8.55551Z" fill="white"/>
<path d="M1.51734 9.88894C2.97328 9.99686 4.92256 10.3455 6.28804 10.9723C7.66132 11.6146 8.70345 12.4474 9.22777 12.92C9.30845 12.9927 9.45114 12.9412 9.33801 12.8098C8.85949 12.2538 7.74683 11.4847 6.35679 10.8346C4.96681 10.1845 3.27841 9.76798 1.51734 9.88894Z" fill="white"/>
<path d="M2.82491 11.1006C2.51773 11.0902 2.37364 11.1477 2.07729 11.1797C3.06545 11.2233 4.63581 11.4861 5.50298 11.7805C6.6283 12.1709 7.5536 12.759 8.07994 13.2183C8.18157 13.3069 8.25733 13.188 8.19019 13.1126C7.69726 12.5594 6.69542 12.0297 5.55347 11.6335C4.69705 11.3364 3.74646 11.1318 2.82491 11.1006Z" fill="white"/>
<path d="M2.78249 12.5336C4.89489 12.6762 6.17222 13.0484 7.15133 13.9254C7.22469 13.9912 7.34051 13.9007 7.26157 13.8152C6.25679 12.7266 4.27854 12.4232 2.78249 12.5336Z" fill="white"/>
<path d="M4.40912 13.8023C3.76876 13.7508 3.23293 13.8908 2.64934 14.0851C4.3572 13.8129 5.06733 13.9434 6.36125 14.5511C6.50876 14.6203 6.50011 14.4571 6.43476 14.4179C5.74739 14.0047 5.04946 13.8538 4.40912 13.8023Z" fill="white"/>
<path d="M4.34826 14.9919C3.74281 15.0456 3.2287 15.2535 2.80484 15.5983C4.49613 14.9464 4.96353 15.0761 6.25709 15.4428C6.4272 15.491 6.37434 15.3272 6.30761 15.3004C5.53306 14.9899 4.95374 14.9383 4.34826 14.9919Z" fill="white"/>
<path d="M7.69926 16.0396C6.7969 15.942 5.78032 16.0514 4.88807 16.2141C3.99588 16.3768 3.22854 16.7074 2.7954 17.0597C4.27882 16.4332 4.54917 16.4345 4.91573 16.3657C5.79472 16.2054 6.66602 16.1429 7.69022 16.1912C7.78309 16.1956 7.7782 16.0481 7.69926 16.0396Z" fill="white"/>
<path d="M8.22303 16.7698C7.24513 16.7328 6.23511 16.9749 5.36131 17.2245C4.48758 17.4743 3.83905 17.815 3.41138 18.1628C4.27672 17.7466 5.08198 17.4648 5.40262 17.3715C6.26414 17.1253 7.13324 16.9121 8.23225 16.926C8.31762 16.9271 8.37276 16.7755 8.22303 16.7698Z" fill="white"/>
<path d="M9.02158 17.3711C8.10056 17.5071 7.13491 17.7791 6.29301 18.0647C5.45121 18.3503 4.85199 18.6895 4.46111 19.0956C5.4624 18.5208 6.01308 18.3193 6.33892 18.2071C7.1704 17.925 7.94679 17.7287 9.04904 17.5227C9.18133 17.4979 9.07519 17.3632 9.02158 17.3711Z" fill="white"/>
<path d="M9.49002 18.1383C7.643 18.4326 6.44609 19.2294 5.68533 20.0197C6.86432 19.1314 7.6845 18.654 9.52211 18.2899C9.63842 18.2668 9.60335 18.1203 9.49002 18.1383Z" fill="white"/>
<path d="M10.39 18.8132C8.53229 19.0994 7.46097 20.2287 7.01485 20.9741C8.1902 19.8 9.10493 19.161 10.4221 18.9648C10.5554 18.945 10.5214 18.793 10.39 18.8132Z" fill="white"/>
<path d="M10.9507 19.4016C10.6609 19.4378 10.2667 19.643 9.89417 19.8793C9.52167 20.1157 9.2406 20.4033 9.073 20.7738C9.5217 20.3107 9.70133 20.1854 9.97684 20.0079C10.3345 19.781 10.6949 19.6381 10.9874 19.5532C11.1245 19.5134 11.0209 19.3928 10.9507 19.4016Z" fill="white"/>
<path d="M25.1993 9.05897C25.1993 9.41945 24.9071 9.71167 24.5466 9.71167C24.1862 9.71167 23.894 9.41945 23.894 9.05897C23.894 8.69852 24.1862 8.40628 24.5466 8.40628C24.9071 8.40628 25.1993 8.6985 25.1993 9.05897Z" fill="white" stroke="white" stroke-width="0.660673"/>
<path d="M25.1993 9.05897C25.1993 9.41945 24.9071 9.71167 24.5466 9.71167C24.1862 9.71167 23.894 9.41945 23.894 9.05897C23.894 8.69852 24.1862 8.40628 24.5466 8.40628C24.9071 8.40628 25.1993 8.6985 25.1993 9.05897Z" fill="#3757C8" stroke="white" stroke-width="0.660673"/>
</svg>
